<?xml version="1.0" encoding="UTF-8"?>
<!DOCTYPE svg PUBLIC "-//W3C//DTD SVG 1.1//EN" "http://www.w3.org/Graphics/SVG/1.1/DTD/svg11.dtd">
<!-- Creator: CorelDRAW X5 -->
<svg xmlns="http://www.w3.org/2000/svg" xml:space="preserve" width="33px" height="33px" style="shape-rendering:geometricPrecision; text-rendering:geometricPrecision; image-rendering:optimizeQuality; fill-rule:evenodd; clip-rule:evenodd"
viewBox="0 0 33 33"
 xmlns:xlink="http://www.w3.org/1999/xlink">
 <defs>
  <style type="text/css">
   <![CDATA[
    .fil0 {fill:#E3AF2A;fill-rule:nonzero}
   ]]>
  </style>
 </defs>
 <g id="Capa_x0020_1">
  <metadata id="CorelCorpID_0Corel-Layer"/>
  <path id="facebook-logo.eps" class="fil0" d="M24.0012 1.50472l-3.89173 -0.00590551c-4.37008,0 -7.19646,2.89843 -7.19646,7.38425l0 3.40394 -3.91181 0c-0.336614,0 -0.61063,0.272835 -0.61063,0.611811l0 4.93346c0,0.336614 0.274016,0.61063 0.61063,0.61063l3.91181 0 0 12.4476c0,0.336614 0.275197,0.61063 0.612992,0.61063l5.10236 0c0.337795,0 0.612992,-0.274016 0.612992,-0.61063l0 -12.4476 4.57323 0c0.337795,0 0.611811,-0.274016 0.611811,-0.61063l0.0023622 -4.93346c0,-0.161811 -0.0661417,-0.317717 -0.179528,-0.433465 -0.114567,-0.113386 -0.270472,-0.178346 -0.433465,-0.178346l-4.57441 0 0 -2.88543c0,-1.3878 0.330709,-2.09173 2.13661,-2.09173l2.62087 -0.0011811c0.338976,0 0.61063,-0.274016 0.61063,-0.611811l0 -4.57913c0,-0.338976 -0.271654,-0.611811 -0.608268,-0.612992z"/>
 </g>
</svg>
