<?xml version="1.0" encoding="UTF-8"?>
<!DOCTYPE svg PUBLIC "-//W3C//DTD SVG 1.1//EN" "http://www.w3.org/Graphics/SVG/1.1/DTD/svg11.dtd">
<!-- Creator: CorelDRAW X5 -->
<svg xmlns="http://www.w3.org/2000/svg" xml:space="preserve" width="33px" height="33px" style="shape-rendering:geometricPrecision; text-rendering:geometricPrecision; image-rendering:optimizeQuality; fill-rule:evenodd; clip-rule:evenodd"
viewBox="0 0 33 33"
 xmlns:xlink="http://www.w3.org/1999/xlink">
 <defs>
  <style type="text/css">
   <![CDATA[
    .fil0 {fill:#E3AF2A;fill-rule:nonzero}
   ]]>
  </style>
 </defs>
 <g id="Capa_x0020_1">
  <metadata id="CorelCorpID_0Corel-Layer"/>
  <path id="linkedin-logo.eps" class="fil0" d="M32.1969 19.8921l0 11.6079 -6.72874 0 0 -10.8295c0,-2.72008 -0.973228,-4.57677 -3.40866,-4.57677 -1.86024,0 -2.96575,1.25079 -3.45236,2.46142 -0.177165,0.432283 -0.223228,1.03346 -0.223228,1.64055l0 11.3043 -6.7311 0c0,0 0.0897638,-18.3425 0,-20.2417l6.7311 0 0 2.86772c-0.0141732,0.0224409 -0.0318898,0.0448819 -0.0437008,0.0673228l0.0437008 0 0 -0.0673228c0.894094,-1.37598 2.48976,-3.34252 6.06496,-3.34252 4.42913,0 7.74803,2.89134 7.74803,9.10866zm-27.5858 -18.3921c-2.30315,0 -3.80787,1.51063 -3.80787,3.49724 0,1.94291 1.4622,3.49843 3.71929,3.49843l0.0448819 0c2.34685,0 3.80551,-1.55551 3.80551,-3.49843 -0.0437008,-1.98661 -1.45866,-3.49724 -3.76181,-3.49724zm-3.40866 30l6.72874 0 0 -20.2417 -6.72874 0 0 20.2417z"/>
 </g>
</svg>
