<?xml version="1.0" encoding="UTF-8"?>
<!DOCTYPE svg PUBLIC "-//W3C//DTD SVG 1.1//EN" "http://www.w3.org/Graphics/SVG/1.1/DTD/svg11.dtd">
<!-- Creator: CorelDRAW X5 -->
<svg xmlns="http://www.w3.org/2000/svg" xml:space="preserve" width="33px" height="33px" style="shape-rendering:geometricPrecision; text-rendering:geometricPrecision; image-rendering:optimizeQuality; fill-rule:evenodd; clip-rule:evenodd"
viewBox="0 0 33 33"
 xmlns:xlink="http://www.w3.org/1999/xlink">
 <defs>
  <style type="text/css">
   <![CDATA[
    .fil0 {fill:#E3AF2A}
   ]]>
  </style>
 </defs>
 <g id="Capa_x0020_1">
  <metadata id="CorelCorpID_0Corel-Layer"/>
  <path id="whatsapp-logo.eps" class="fil0" d="M31.5 16.1138c0,8.07047 -6.59291,14.6138 -14.7272,14.6138 -2.58189,0 -5.00906,-0.660236 -7.1185,-1.8189l-8.15433 2.59134 2.65748 -7.84016c-1.34055,-2.20276 -2.11181,-4.78583 -2.11181,-7.54606 0,-8.07047 6.59291,-14.6138 14.7272,-14.6138 8.13425,0 14.7272,6.54331 14.7272,14.6138zm-14.7272 -12.287c-6.82913,0 -12.3827,5.51102 -12.3827,12.287 0,2.68701 0.876378,5.17795 2.35866,7.20472l-1.54606 4.56142 4.75748 -1.51181c1.95472,1.28268 4.29685,2.0315 6.8126,2.0315 6.82677,0 12.3815,-5.51102 12.3815,-12.2858 0,-6.77598 -5.55472,-12.287 -12.3815,-12.287zm7.4374 15.6531c-0.0909449,-0.15 -0.33189,-0.238583 -0.692126,-0.41811 -0.361417,-0.178346 -2.13661,-1.04646 -2.46732,-1.16457 -0.330709,-0.119291 -0.572835,-0.179528 -0.811417,0.178346 -0.240945,0.357874 -0.933071,1.16575 -1.14449,1.40433 -0.210236,0.239764 -0.420472,0.269291 -0.78189,0.0897638 -0.361417,-0.178346 -1.5248,-0.558661 -2.90315,-1.77756 -1.07244,-0.950787 -1.79764,-2.12244 -2.00906,-2.48031 -0.209055,-0.357874 -0.0212598,-0.551575 0.158268,-0.731102 0.162992,-0.16063 0.361417,-0.41811 0.542126,-0.625984 0.180709,-0.210236 0.240945,-0.360236 0.361417,-0.598819 0.119291,-0.239764 0.0602362,-0.447638 -0.0318898,-0.627165 -0.0885827,-0.178346 -0.811417,-1.94173 -1.1126,-2.65984 -0.3,-0.715748 -0.601181,-0.597638 -0.812598,-0.597638 -0.210236,0 -0.45,-0.0283465 -0.690945,-0.0283465 -0.240945,0 -0.63189,0.0885827 -0.962598,0.447638 -0.330709,0.357874 -1.2626,1.2248 -1.2626,2.98701 0,1.7622 1.29213,3.46654 1.47283,3.70394 0.180709,0.239764 2.49685,3.97441 6.16654,5.40827 3.67087,1.43386 3.67087,0.955512 4.33346,0.895276 0.660236,-0.057874 2.13543,-0.865748 2.43661,-1.70197 0.301181,-0.837402 0.301181,-1.55433 0.211417,-1.70315z"/>
 </g>
</svg>
